<mxfile host="app.diagrams.net" modified="2023-12-23T07:04:51.131Z" agent="Mozilla/5.0 (Windows NT 10.0; Win64; x64) AppleWebKit/537.36 (KHTML, like Gecko) Chrome/120.0.0.0 Safari/537.36" etag="v34IryvhA426e_KAEkEQ" version="22.1.11" type="github">
  <diagram name="Page-1" id="2bnEpL4pz7nwndURoEGw">
    <mxGraphModel dx="282" dy="587" grid="0" gridSize="10" guides="1" tooltips="1" connect="1" arrows="1" fold="1" page="0" pageScale="1" pageWidth="850" pageHeight="1100" math="0" shadow="0">
      <root>
        <mxCell id="0" />
        <mxCell id="1" parent="0" />
        <mxCell id="gCYEzIcZGM7z1Gggyq7X-1" value="" style="whiteSpace=wrap;html=1;aspect=fixed;fontSize=16;" vertex="1" parent="1">
          <mxGeometry x="18" y="18" width="397" height="397" as="geometry" />
        </mxCell>
        <mxCell id="gCYEzIcZGM7z1Gggyq7X-2" value="" style="rounded=0;whiteSpace=wrap;html=1;fontSize=16;" vertex="1" parent="1">
          <mxGeometry x="60.5" y="32" width="312" height="40" as="geometry" />
        </mxCell>
        <mxCell id="gCYEzIcZGM7z1Gggyq7X-3" value="" style="rounded=0;whiteSpace=wrap;html=1;fontSize=16;" vertex="1" parent="1">
          <mxGeometry x="60.5" y="378" width="312" height="24" as="geometry" />
        </mxCell>
        <mxCell id="gCYEzIcZGM7z1Gggyq7X-4" value="" style="rounded=0;whiteSpace=wrap;html=1;fontSize=16;rotation=90;" vertex="1" parent="1">
          <mxGeometry x="-54" y="189" width="226" height="60" as="geometry" />
        </mxCell>
        <mxCell id="gCYEzIcZGM7z1Gggyq7X-5" value="" style="rounded=0;whiteSpace=wrap;html=1;fontSize=16;" vertex="1" parent="1">
          <mxGeometry x="138" y="114" width="115" height="33" as="geometry" />
        </mxCell>
        <mxCell id="gCYEzIcZGM7z1Gggyq7X-6" value="" style="rounded=0;whiteSpace=wrap;html=1;fontSize=16;" vertex="1" parent="1">
          <mxGeometry x="138" y="162" width="115" height="33" as="geometry" />
        </mxCell>
        <mxCell id="gCYEzIcZGM7z1Gggyq7X-7" value="" style="rounded=0;whiteSpace=wrap;html=1;fontSize=16;" vertex="1" parent="1">
          <mxGeometry x="138" y="214" width="115" height="62" as="geometry" />
        </mxCell>
        <mxCell id="gCYEzIcZGM7z1Gggyq7X-8" value="" style="rounded=1;whiteSpace=wrap;html=1;fontSize=16;" vertex="1" parent="1">
          <mxGeometry x="138" y="287" width="54" height="25" as="geometry" />
        </mxCell>
      </root>
    </mxGraphModel>
  </diagram>
</mxfile>
